<svg xmlns="http://www.w3.org/2000/svg" xmlns:xlink="http://www.w3.org/1999/xlink" viewBox="0 0 395.52 247.2" height="247.2" width="395.52">
	<g transform="matrix(1,0,0,1,75.54432,97.14590775956285)">
		<svg viewBox="0 0 244.43135999999998 52.908184480874304" height="52.908184480874304" width="244.43135999999998">
			<g>
				<svg viewBox="0 0 244.43135999999998 52.908184480874304" height="52.908184480874304" width="244.43135999999998">
					<g>
						<svg viewBox="0 0 244.43135999999998 52.908184480874304" height="52.908184480874304" width="244.43135999999998">
							<g>
								<svg viewBox="0 0 244.43135999999998 52.908184480874304" height="52.908184480874304" width="244.43135999999998">
									<g id="textblocktransform">
										<svg viewBox="0 0 244.43135999999998 52.908184480874304" height="52.908184480874304" width="244.43135999999998" id="textblock">
											<g>
												<svg viewBox="0 0 244.43135999999998 52.908184480874304" height="52.908184480874304" width="244.43135999999998">
													<g transform="matrix(1,0,0,1,0,0)">
														<svg width="244.43135999999998" viewBox="4.25 -35.150001525878906 164.69000244140625 35.650001525878906" height="52.908184480874304" data-palette-color="#bb84e8">
															<path d="M16.6 0L16.6 0 4.25 0 4.25-34.6 16.6-34.6Q25.05-34.6 27.8-27.9L27.8-27.9Q29.4-24.05 29.4-17.8L29.4-17.8Q29.4-4.75 22.9-1.35L22.9-1.35Q20.3 0 16.6 0ZM25.45-17.8L25.45-17.8Q25.45-27.75 21-30.2L21-30.2Q19.2-31.2 16.6-31.2L16.6-31.2 8.1-31.2 8.1-3.4 16.6-3.4Q25.45-3.4 25.45-17.8ZM52.85-3.1L52.85-3.1 54.3-3.25 54.4-0.3Q48.7 0.5 44.65 0.5L44.65 0.5Q39.25 0.5 37-2.63 34.75-5.75 34.75-12.35L34.75-12.35Q34.75-25.5 45.2-25.5L45.2-25.5Q50.25-25.5 52.75-22.68 55.25-19.85 55.25-13.8L55.25-13.8 55.05-10.95 38.55-10.95Q38.55-6.8 40.05-4.8 41.55-2.8 45.27-2.8 49-2.8 52.85-3.1ZM38.5-13.95L51.5-13.95Q51.5-18.55 50.02-20.45 48.55-22.35 45.22-22.35 41.9-22.35 40.22-20.35 38.55-18.35 38.5-13.95L38.5-13.95ZM71.09-31.75L71.09-31.75Q63.59-31.75 63.59-26.1L63.59-26.1Q63.59-22.95 65.32-21.78 67.05-20.6 72.32-19.43 77.59-18.25 79.8-16.38 82-14.5 82-10.2L82-10.2Q82 0.45 70.95 0.45L70.95 0.45Q67.3 0.45 61.8-0.4L61.8-0.4 60-0.65 60.4-3.85Q67.2-2.95 70.75-2.95L70.75-2.95Q78.15-2.95 78.15-9.9L78.15-9.9Q78.15-12.7 76.52-13.93 74.9-15.15 70.45-16L70.45-16Q64.59-17.25 62.15-19.23 59.7-21.2 59.7-25.85L59.7-25.85Q59.7-35.15 70.84-35.15L70.84-35.15Q74.5-35.15 79.59-34.4L79.59-34.4 81.3-34.15 80.95-30.9Q74-31.75 71.09-31.75ZM91.19-17.15Q91.19-9.55 93.19-6.23 95.19-2.9 100.92-2.9 106.64-2.9 108.62-6.15 110.59-9.4 110.59-17.05 110.59-24.7 108.54-28.2 106.49-31.7 100.87-31.7 95.24-31.7 93.22-28.23 91.19-24.75 91.19-17.15ZM114.59-17.05Q114.59-7.8 111.64-3.65 108.69 0.5 100.92 0.5 93.14 0.5 90.19-3.75 87.24-8 87.24-17.13 87.24-26.25 90.24-30.68 93.24-35.1 100.89-35.1 108.54-35.1 111.57-30.7 114.59-26.3 114.59-17.05ZM127.69-31.15L117.04-31.15 117.04-34.6 142.04-34.6 142.04-31.15 131.49-31.15 131.49 0 127.69 0 127.69-31.15ZM145.34 0L141.54 0 151.04-34.6 159.44-34.6 168.94 0 165.14 0 162.64-8.9 147.84-8.9 145.34 0ZM156.54-31.3L153.94-31.3 148.69-12.35 161.79-12.35 156.54-31.3Z" opacity="1" transform="matrix(1,0,0,1,0,0)" fill="#bb84e8" class="wordmark-text-0" data-fill-palette-color="primary" id="text-0"/>
														</svg>
													</g>
												</svg>
											</g>
										</svg>
									</g>
								</svg>
							</g>
						</svg>
					</g>
				</svg>
			</g>
		</svg>
	</g>
	<path d="M193.342 91.146L193.342 31.144 8.431 31.144 8.431 216.056 193.342 216.056 193.342 156.054 188.571 156.054 188.571 211.284 13.202 211.284 13.202 35.916 188.571 35.916 188.571 91.146Z" fill="#bb84e8" stroke="transparent" data-fill-palette-color="primary"/>
</svg>